<?xml version="1.0" encoding="UTF-8" standalone="no"?>
<!-- Created with Inkscape (http://www.inkscape.org/) -->
<svg xmlns:rdf="http://www.w3.org/1999/02/22-rdf-syntax-ns#" xmlns="http://www.w3.org/2000/svg" xmlns:cc="http://creativecommons.org/ns#" xmlns:dc="http://purl.org/dc/elements/1.1/" xmlns:svg="http://www.w3.org/2000/svg" xmlns:inkscape="http://www.inkscape.org/namespaces/inkscape" xmlns:sodipodi="http://sodipodi.sourceforge.net/DTD/sodipodi-0.dtd" xmlns:ns1="http://sozi.baierouge.fr" xmlns:xlink="http://www.w3.org/1999/xlink" id="svg2" viewBox="0 0 95.701 86.146" version="1.1" inkscape:version="0.91 r13725">
  <g id="layer1" transform="translate(-28.874 -26.249)">
    <path id="path3133" style="stroke:#000000;stroke-width:1px;fill:none" d="m87.819 71.883 4.1613-1.3666m-5.2024-0.56332 2.7234-5.388m-5.177 4.4425s0.34285-4.8026-0.41417-5.7204m-1.0297 6.5207s-2.6256-2.8511-4.2967-3.9631m3.2243 6.0896s-4.4409-1.1026-5.5935-1.6573m6.0234 3.3001s-3.1633 1.9778-5.0744 3.2252m6.6793-1.601s-1.2796 4.5279-2.1716 5.9571m4.6908-5.4621s-0.15498 6.679-0.44855 6.6376m2.451-7.2059s2.9482 5.7063 2.6799 7.0422m-1.0676-8.1459s3.2205 3.016 5.7872 5.5639m-4.3612-7.2288s5.8584 2.6903 6.9116 3.7862m-53.997 35.26s1.5544-4.2082 5.1615-7.0008 15.253-13.698 20.251-14.791m-32.282 17.362s-0.53627-6.0618 6.5616-9.9598c7.0978-3.898 17.666-11.994 23.058-11.03m-29.495 21.13s1.5519-0.56542 2.9482 1.0054 4.0143 4.1307 5.8179 3.7234c1.8035-0.40725 1.629-2.0363 2.7926-2.3272s2.7344 0.69814 2.7926-0.98904-1.0472-3.258 1.9199-3.1998 4.247 2.618 5.2943 1.2218c1.0472-1.3963 1.6872-3.6653 3.3744-5.3525s2.6762-1.3381 4.7125-2.4435 1.0156-1.7155 4.0858-1.1778m28.594-26.982s-5.6529-0.13878-7.9668 0.28013m7.5518-4.592s-5.5757 2.4847-7.5462 3.1078m6.8363-5.6103s-4.845 2.9855-7.1749 4.1731m6.4387-6.1603s-4.3217 3.2826-7.156 4.3844m5.5157-7.3755s-5.1918 5.631-6.2182 6.3851m2.0731-9.8358s-3.1354 8.8573-3.7323 8.6021m0.72482-9.8771s-1.1742 7.6518-2.1166 9.3802m-1.8071-10.212s0.45341 7.5446-0.1264 9.9754m-3.7334-10.033s1.9372 7.4167 1.6727 10.202m-6.085-9.2066s4.1511 6.8689 4.3749 9.6341m-8.6246-7.5898s6.1468 5.2713 6.654 8.715m-10.271-5.8806s7.6394 4.4626 8.9761 7.3297m-12.258-2.4189s9.0958 1.1678 11.403 3.896m-12.729 0.37122s8.7533 0.0266 11.866 2.1808m-12.45 3.4917s8.5309-1.5702 12.192-1.2211m-11.622 7.501s8.1942-4.5413 12.291-4.0722m0.22663 25.088s2.1373-13.436 5.9683-19.514m-11.636 9.7385s5.6634-9.5983 9.1425-10.883m-13.044 6.1235s5.0697-5.0609 10.616-8.3187m7.9295 25.29s-0.80055-6.5765-0.68419-10.882c0.11635-4.3052 0.56365-9.2113 0.86361-10.394m10.53 20.987s-1.9691-3.5524-2.9-7.3922c-0.93086-3.8398-3.0193-9.5703-3.1968-13.716m15.396 17.636s-3.0072-1.7676-4.8689-4.6766c-1.8617-2.9089-8.0153-13.805-7.7824-13.932m19.653 13.001s-3.9583-1.0474-5.9946-2.6183c-2.0363-1.5708-10.491-11.105-10.831-12.563m22.191 8.5353s-5.8332-0.3356-7.055-1.1501c-1.2218-0.81451-10.239-7.7378-10.239-7.7378s-1.84-1.3698-2.8108-2.6339m24.253 2.8956s-3.6394 1.4255-6.9556 0.66917-12.45-4.3634-12.45-4.3634-2.2416-0.50427-3.5643-2.6084m24.366-0.93816s-14.576-0.64233-18.474-1.1659c-3.898-0.52361-5.5046-1.1158-5.6726-2.2785m22.526-10.492s-6.8463 3.9269-10.046 4.9159c-3.1998 0.98904-11.212 1.8334-13.402 1.4403m21.371-11.996s-13.089 6.4247-14.369 7.0065c-1.2799 0.58179-4.413 1.8274-8.4608 1.2628m17.506-17.597s-7.009 6.7927-9.1034 8.2472-7.5332 6.1941-10.574 6.4424m13.118-21.957s-0.39162 2.7734-2.0206 4.7515-13.062 15.557-13.999 15.076m6.2712-25.398s0.92128 3.3992-0.2423 5.9008c-1.1636 2.5017-8.0013 17.205-9.6731 17.998m0.009-26.508s1.752 1.3538 1.0539 6.1245c-0.69814 4.7707-0.89286 17.079-3.5881 19.826m-8.0526-26.581s3.4956 0.35462 4.1938 4.8926c0.69814 4.538 2.0011 21.398 0.69851 21.444m-14.162-25.072s3.2244 0.25429 5.6679 9.3302 4.4722 13.138 3.5742 16.459m-20.019-22.246s4.925-0.9622 6.903 3.2267c1.9781 4.1889 10.537 19.792 8.9278 20.752m-25.593-18.227s5.9608-1.7105 8.2879 1.0821c2.3272 2.7926 14.424 14.765 14.484 18.96m-29.33-13.915s5.6533-2.2528 10.657 1.8197c5.0034 4.0725 17.683 12.168 15.982 14.581m-32.565-7.6913s5.9947-4.5621 10.3-2.0022c4.3052 2.5599 21.135 10.569 20.189 12.826m-33.883-2.5389s5.6657-4.818 10.669-2.9563c5.0034 1.8617 22.109 7.4759 21.641 9.8612m-34.738 3.7942s4.371-6.2085 9.1417-5.743c4.7707 0.46543 25.075 2.5973 24.945 5.844m-34.743 7.7694s3.1659-6.2829 8.1692-6.2829c5.0034 0 21.626-2.1148 26.463 2.5497m-33.424 16.179s1.1435-8.8387 8.1249-10.002c6.9814-1.1636 24.797-5.7103 25.637-2.466m-30.354 22.34s-0.51949-8.4705 4.3675-10.798c4.887-2.3272 21.41-9.0759 22.108-8.9595 0.69815 0.11636 3.3662-1.4684 5.1845 1.7792m-28.084 23.75s-13.987-15.962-5.4303-45.582c8.5568-29.62 36.531-34.227 45.252-34.721 8.7214-0.49366 25.671 1.1519 35.379 13.164 9.7087 12.012 13.329 26.164 10.202 37.683-3.4078 12.555-14.974 23.367-24.354 25.341-9.3796 1.9747-19.911 0.82277-27.316-5.4303l0.16455-6.0885s-6.0885-5.7594-7.0758-12.177c-0.98733-6.4176-0.16456-12.671 2.4683-17.278 2.6329-4.6075 9.215-8.5568 15.139-8.8859 5.924-0.32911 13.307 2.1095 15.797 8.0632 2.5465 6.0885 2.8356 10.337 0.65822 14.645-2.0381 4.0327-5.5949 7.0758-11.519 6.5822-5.924-0.49366-9.0505-3.1265-10.367-7.0758-1.3164-3.9493 0.82278-10.202 4.7721-11.519 3.9493-1.3164 8.3334-0.63582 9.7879 2.8549 1.317 3.1608 1.3963 5.4106-1.7454 7.796-2.0566 1.5615-5.4688 1.9781-7.156-0.93086-1.6872-2.9089 2.0363-5.527 3.6653-4.3634s1.7454 2.1526 1.9199 2.6762"/>
  </g>
  <metadata>
    <rdf:RDF>
      <cc:Work>
        <dc:format>image/svg+xml</dc:format>
        <dc:type rdf:resource="http://purl.org/dc/dcmitype/StillImage"/>
        <cc:license rdf:resource="http://creativecommons.org/licenses/publicdomain/"/>
        <dc:publisher>
          <cc:Agent rdf:about="http://openclipart.org/">
            <dc:title>Openclipart</dc:title>
          </cc:Agent>
        </dc:publisher>
        <dc:title>ammonite</dc:title>
        <dc:date>2013-01-27T07:14:26</dc:date>
        <dc:description/>
        <dc:source>https://openclipart.org/detail/174552/ammonite-by-gosc-174552</dc:source>
        <dc:creator>
          <cc:Agent>
            <dc:title>Gosc</dc:title>
          </cc:Agent>
        </dc:creator>
        <dc:subject>
          <rdf:Bag>
            <rdf:li>Ammonit</rdf:li>
            <rdf:li>Ammonshorn</rdf:li>
            <rdf:li>Fossil</rdf:li>
            <rdf:li>Paläontologie</rdf:li>
            <rdf:li>ammonite</rdf:li>
            <rdf:li>animal</rdf:li>
            <rdf:li>biology</rdf:li>
            <rdf:li>black and white</rdf:li>
            <rdf:li>cephalopoda</rdf:li>
            <rdf:li>ceratite</rdf:li>
            <rdf:li>contour</rdf:li>
            <rdf:li>evolution</rdf:li>
            <rdf:li>extinct</rdf:li>
            <rdf:li>fossil</rdf:li>
            <rdf:li>geology</rdf:li>
            <rdf:li>line art</rdf:li>
            <rdf:li>outline</rdf:li>
            <rdf:li>palaeontology</rdf:li>
            <rdf:li>paleontology</rdf:li>
            <rdf:li>shell</rdf:li>
          </rdf:Bag>
        </dc:subject>
      </cc:Work>
      <cc:License rdf:about="http://creativecommons.org/licenses/publicdomain/">
        <cc:permits rdf:resource="http://creativecommons.org/ns#Reproduction"/>
        <cc:permits rdf:resource="http://creativecommons.org/ns#Distribution"/>
        <cc:permits rdf:resource="http://creativecommons.org/ns#DerivativeWorks"/>
      </cc:License>
    </rdf:RDF>
  </metadata>
</svg>
